<?xml version="1.0" encoding="UTF-8" standalone="no"?>
<!DOCTYPE svg PUBLIC "-//W3C//DTD SVG 1.1//EN" "http://www.w3.org/Graphics/SVG/1.1/DTD/svg11.dtd">
<svg width="100%" height="100%" viewBox="0 0 1764 1484" version="1.1" xmlns="http://www.w3.org/2000/svg" xmlns:xlink="http://www.w3.org/1999/xlink" xml:space="preserve" style="fill-rule:evenodd;clip-rule:evenodd;stroke-linecap:round;stroke-linejoin:round;stroke-miterlimit:1.5;">
    <path id="fill" d="M849.828,1342.93C849.828,1342.93 881.153,1348.03 911.022,1330.54C940.891,1313.06 954.732,1288.29 954.732,1288.29C1008.16,1284.7 1056.48,1246.23 1098.25,1162.99C1250.42,1014.96 1392.65,967.406 1527.34,996.161C1530.03,958.854 1516.39,920.063 1476.34,878.871C1517.57,885.518 1553.13,901.608 1582.7,927.681C1568.87,756.702 1522,597.932 1418.79,459.981C1469.96,325.451 1461.81,219.439 1378.94,141.246C1350.78,127.615 1321.65,121.492 1281.83,146.724L1246.86,183.877C1230.96,166.066 1199.62,162.593 1156.53,170.036C1094.82,172.144 1036.84,161.858 980.958,144.538C956.735,133.924 922.619,124.07 873.14,115.398C805.229,116.912 743.625,125.783 687.371,140.896C641.565,154.573 579.225,160.975 484.846,153.28L465.905,168.579C429.549,132.422 394.929,115.373 362.458,121.955C362.458,121.955 300.956,150.11 272.852,225.402C243.693,303.519 285.246,449.11 293.978,449.782C184.592,593.027 136.72,751.65 120.594,918.211C151.861,890.397 186.461,873.416 225.499,870.858C192.69,904.653 176.714,942.938 173.046,984.504C310.864,957.353 452.904,1019.91 598.493,1157.89C622.793,1211.65 646.319,1266.28 736.909,1288.29C765.728,1325.03 801.58,1346.99 849.828,1342.93" style="stroke:black;stroke-width:11.23px;"/>
    <path id="outline" d="M849.828,1342.93C849.828,1342.93 881.153,1348.03 911.022,1330.54C940.891,1313.06 954.732,1288.29 954.732,1288.29C1008.16,1284.7 1056.48,1246.23 1098.25,1162.99C1250.42,1014.96 1392.65,967.406 1527.34,996.161C1530.03,958.854 1516.39,920.063 1476.34,878.871C1517.57,885.518 1553.13,901.608 1582.7,927.681C1568.87,756.702 1522,597.932 1418.79,459.981C1469.96,325.451 1464.58,214.934 1381.71,136.742C1361.22,120.46 1320.27,119.558 1280.45,144.79C1262.49,160.651 1255.99,174.274 1246.86,183.877C1230.96,166.066 1213.85,189.469 1170.76,196.912C1109.05,199.02 1055.81,182.41 999.93,165.091C975.706,154.476 922.619,152.527 873.14,143.855C805.229,145.369 743.625,147.916 687.371,163.029C641.565,176.706 601.359,183.109 506.98,175.414L465.905,168.579C429.549,132.422 393.271,109.57 360.8,121.402C348.097,127.451 296.956,152.015 272.852,225.402C246.832,304.62 285.246,449.11 293.978,449.782C184.592,593.027 136.72,751.65 120.594,918.211C151.861,890.397 186.461,873.416 225.499,870.858C192.69,904.653 176.714,942.938 173.046,984.504C310.864,957.353 452.904,1019.91 598.493,1157.89C622.793,1211.65 646.319,1266.28 736.909,1288.29C765.728,1325.03 801.58,1346.99 849.828,1342.93" style="fill:none;stroke:black;stroke-width:9.33px;"/>
    <path id="hair" d="M464.836,173.354C423.022,272.457 466.933,475.772 544.478,504.973C533.482,462.096 533.646,431.393 546.964,415.04C545.317,460.446 603.153,551.289 689.117,572.112C671.737,547.539 659.195,519.234 663.007,473.891C765.074,546.409 821.373,619.643 781.951,694.372C848.271,670.786 867.453,609.927 838.729,511.19C908.781,564.815 970.784,552.195 1026.47,487.567C1030.1,528.918 1019.52,561.983 996.63,587.861C1038.75,583.557 1090.31,535.387 1154.53,428.302C1167.59,461.862 1164.97,487.999 1157.02,511.604C1239.52,459.945 1274.27,357.15 1247.37,188.343C1244.73,171.786 1226.28,162.873 1203.24,161.007C999.95,178.631 982.633,122.54 873.29,112.069C866.35,111.404 850.184,111.94 840.369,110.964C750.479,102.019 632.322,167.928 519.797,153.745C514.787,153.114 508.019,149.104 494.935,149.645C475.698,150.439 469.917,161.313 464.836,173.354Z" style="fill:white;stroke:black;stroke-width:13.33px;stroke-linejoin:miter;stroke-miterlimit:4;"/>
    <path id="ear_left" d="M341.279,454.598C358.022,481.869 421.434,362.887 425.203,343.865C433.405,302.471 367.658,162.191 338.948,178.349C283.857,209.355 288.986,369.416 341.279,454.598Z" style="fill:white;stroke:white;stroke-width:11.23px;"/>
    <path id="ear_right" d="M1359.44,456.929C1393.41,486.486 1427.16,237.315 1372.23,193.194C1354.81,187.276 1336.58,202.004 1326.68,217.213C1253.68,328.755 1290.57,401.746 1359.44,456.929Z" style="fill:white;stroke:white;stroke-width:11.23px;"/>
    <path id="eye_right" d="M1114.08,887.038C1111.49,887.304 1109.07,886.009 1107.94,885.39C1078.12,869.055 1061.99,769.515 1110.58,751.828C1152.58,738.781 1149.45,887.612 1114.08,887.038" style="fill:white;stroke:white;stroke-width:11.23px;"/>
    <path id="eye_left" d="M593.634,881.793C636.55,871.951 624.002,748.739 593.051,748.914C590.704,748.927 581.394,749.981 578.481,754.742C550.445,772.869 546.293,876.487 593.634,881.793Z" style="fill:white;stroke:white;stroke-width:11.23px;"/>
    <path id="nose" d="M755.623,1214.39C785.582,1203.81 809.309,1205.69 818.75,1236.14C833.425,1246.82 853.499,1244.66 868.881,1236.94C898.744,1182.4 931.217,1226.82 945.535,1198.48C892.762,1129.81 791.244,1151.15 748.462,1197.42C744.39,1206.88 747.67,1212.01 755.623,1214.39Z" style="fill:white;stroke:white;stroke-width:0.35px;"/>
    <path id="nose_top" d="M744.245,1051.61C808.535,1023.34 877.089,1021.72 950.221,1048.71C922.792,1032.76 893.808,1017.74 844.125,1015.14C806.498,1014.3 775.189,1032.4 744.245,1051.61Z" style="fill:white;stroke:white;stroke-width:0.35px;"/>
    <g id="angry-eyes" transform="matrix(1,0,0,1.025,0,-17.8518)">
        <path d="M1051.6,796.958L1188.89,724.432L505.408,724.804L656.384,795.801C804.19,785.392 916.34,795.131 1051.6,796.958Z" style="stroke:black;stroke-width:9.22px;"/>
    </g>
    <g id="angry-eyes_bottom" transform="matrix(1,0,0,1.025,-6.10454,125.605)">
        <path d="M1051.6,796.958L1188.89,724.432L529.412,714.071L643.382,793.85L1051.6,796.958Z" style="stroke:black;stroke-width:9.22px;"/>
    </g>
    <g id="anger" transform="matrix(1.65212,-0.297744,0.297744,1.65212,-1099.55,36.2497)">
        <g transform="matrix(-0.363953,1.8896,-0.708386,-0.136442,2133.76,-1607.68)">
            <path d="M1183.4,646.493C1189.04,609.104 1197.77,564.587 1175.47,538.073" style="fill:none;stroke:white;stroke-width:6.83px;stroke-linejoin:miter;stroke-miterlimit:4;"/>
        </g>
        <g transform="matrix(0.847472,0.53084,-0.382951,0.611372,446.408,-399.804)">
            <path d="M1203.07,609.144C1230.4,548.123 1221.62,538.524 1172.44,542.233" style="fill:none;stroke:white;stroke-width:11.38px;stroke-linejoin:miter;stroke-miterlimit:4;"/>
        </g>
        <g transform="matrix(0.75508,-0.655632,0.472977,0.54472,103.253,1079.25)">
            <path d="M1205.86,633.141C1204.73,570.88 1184.33,574.427 1160.86,566.333" style="fill:none;stroke:white;stroke-width:11.38px;stroke-linejoin:miter;stroke-miterlimit:4;"/>
        </g>
        <g transform="matrix(-0.733358,-0.679843,0.486297,-0.524577,1923.34,1709.08)">
            <path d="M1209.95,627.85C1213.67,588.531 1214.19,541.886 1172.59,548.749" style="fill:none;stroke:white;stroke-width:11.42px;stroke-linejoin:miter;stroke-miterlimit:4;"/>
        </g>
    </g>
</svg>
